<svg width="280" height="76" viewBox="0 0 280 76" fill="none" xmlns="http://www.w3.org/2000/svg">
<rect x="6.5" y="22.5099" width="49" height="32.8" rx="5.5" stroke="url(#paint0_linear_30_2)" stroke-width="5"/>
<rect x="17.23" y="33.51" width="5.4" height="10.8" rx="2.7" fill="url(#paint1_linear_30_2)"/>
<rect x="17.23" y="33.51" width="5.4" height="10.8" rx="2.7" fill="url(#paint2_linear_30_2)"/>
<rect x="17.23" y="33.51" width="5.4" height="10.8" rx="2.7" fill="url(#paint3_linear_30_2)"/>
<rect x="38.56" y="33.51" width="5.4" height="10.8" rx="2.7" fill="url(#paint4_linear_30_2)"/>
<rect x="38.56" y="33.51" width="5.4" height="10.8" rx="2.7" fill="url(#paint5_linear_30_2)"/>
<rect x="38.56" y="33.51" width="5.4" height="10.8" rx="2.7" fill="url(#paint6_linear_30_2)"/>
<rect x="27.76" y="5.97003" width="5.4" height="14.04" fill="url(#paint7_linear_30_2)"/>
<circle cx="30.325" cy="7.995" r="4.995" fill="url(#paint8_linear_30_2)"/>
<path d="M91.104 34.768C91.104 36.0693 90.8053 37.264 90.208 38.352C89.6107 39.4187 88.6933 40.2827 87.456 40.944C86.2187 41.6053 84.6827 41.936 82.848 41.936H79.456V50H73.984V27.536H82.848C84.64 27.536 86.1547 27.8453 87.392 28.464C88.6293 29.0827 89.5573 29.936 90.176 31.024C90.7947 32.112 91.104 33.36 91.104 34.768ZM82.432 37.584C83.4773 37.584 84.256 37.3387 84.768 36.848C85.28 36.3573 85.536 35.664 85.536 34.768C85.536 33.872 85.28 33.1787 84.768 32.688C84.256 32.1973 83.4773 31.952 82.432 31.952H79.456V37.584H82.432ZM93.0247 38.736C93.0247 36.5173 93.5048 34.544 94.4648 32.816C95.4248 31.0667 96.7581 29.712 98.4648 28.752C100.193 27.7707 102.145 27.28 104.321 27.28C106.987 27.28 109.27 27.984 111.169 29.392C113.067 30.8 114.337 32.72 114.977 35.152H108.961C108.513 34.2133 107.873 33.4987 107.041 33.008C106.23 32.5173 105.302 32.272 104.257 32.272C102.571 32.272 101.206 32.8587 100.161 34.032C99.1154 35.2053 98.5928 36.7733 98.5928 38.736C98.5928 40.6987 99.1154 42.2667 100.161 43.44C101.206 44.6133 102.571 45.2 104.257 45.2C105.302 45.2 106.23 44.9547 107.041 44.464C107.873 43.9733 108.513 43.2587 108.961 42.32H114.977C114.337 44.752 113.067 46.672 111.169 48.08C109.27 49.4667 106.987 50.16 104.321 50.16C102.145 50.16 100.193 49.68 98.4648 48.72C96.7581 47.7387 95.4248 46.384 94.4648 44.656C93.5048 42.928 93.0247 40.9547 93.0247 38.736ZM138.709 38.48C140.01 38.7573 141.056 39.408 141.845 40.432C142.634 41.4347 143.029 42.5867 143.029 43.888C143.029 45.7653 142.368 47.2587 141.045 48.368C139.744 49.456 137.92 50 135.573 50H125.109V27.536H135.221C137.504 27.536 139.285 28.0587 140.565 29.104C141.866 30.1493 142.517 31.568 142.517 33.36C142.517 34.6827 142.165 35.7813 141.461 36.656C140.778 37.5307 139.861 38.1387 138.709 38.48ZM130.581 36.624H134.165C135.061 36.624 135.744 36.432 136.213 36.048C136.704 35.6427 136.949 35.056 136.949 34.288C136.949 33.52 136.704 32.9333 136.213 32.528C135.744 32.1227 135.061 31.92 134.165 31.92H130.581V36.624ZM134.613 45.584C135.53 45.584 136.234 45.3813 136.725 44.976C137.237 44.5493 137.493 43.9413 137.493 43.152C137.493 42.3627 137.226 41.744 136.693 41.296C136.181 40.848 135.466 40.624 134.549 40.624H130.581V45.584H134.613ZM163.835 32.144V50H158.363V47.568C157.808 48.3573 157.051 48.9973 156.091 49.488C155.152 49.9573 154.107 50.192 152.955 50.192C151.589 50.192 150.384 49.8933 149.339 49.296C148.293 48.6773 147.483 47.792 146.907 46.64C146.331 45.488 146.043 44.1333 146.043 42.576V32.144H151.483V41.84C151.483 43.0347 151.792 43.9627 152.411 44.624C153.029 45.2853 153.861 45.616 154.907 45.616C155.973 45.616 156.816 45.2853 157.435 44.624C158.053 43.9627 158.363 43.0347 158.363 41.84V32.144H163.835ZM170.517 30.288C169.557 30.288 168.768 30.0107 168.149 29.456C167.552 28.88 167.253 28.176 167.253 27.344C167.253 26.4907 167.552 25.7867 168.149 25.232C168.768 24.656 169.557 24.368 170.517 24.368C171.456 24.368 172.224 24.656 172.821 25.232C173.44 25.7867 173.749 26.4907 173.749 27.344C173.749 28.176 173.44 28.88 172.821 29.456C172.224 30.0107 171.456 30.288 170.517 30.288ZM173.237 32.144V50H167.765V32.144H173.237ZM182.675 26.32V50H177.203V26.32H182.675ZM185.552 41.04C185.552 39.2053 185.894 37.5947 186.576 36.208C187.28 34.8213 188.23 33.7547 189.424 33.008C190.619 32.2613 191.952 31.888 193.424 31.888C194.598 31.888 195.664 32.1333 196.624 32.624C197.606 33.1147 198.374 33.776 198.928 34.608V26.32H204.4V50H198.928V47.44C198.416 48.2933 197.68 48.976 196.72 49.488C195.782 50 194.683 50.256 193.424 50.256C191.952 50.256 190.619 49.8827 189.424 49.136C188.23 48.368 187.28 47.2907 186.576 45.904C185.894 44.496 185.552 42.8747 185.552 41.04ZM198.928 41.072C198.928 39.7067 198.544 38.6293 197.776 37.84C197.03 37.0507 196.112 36.656 195.024 36.656C193.936 36.656 193.008 37.0507 192.24 37.84C191.494 38.608 191.12 39.6747 191.12 41.04C191.12 42.4053 191.494 43.4933 192.24 44.304C193.008 45.0933 193.936 45.488 195.024 45.488C196.112 45.488 197.03 45.0933 197.776 44.304C198.544 43.5147 198.928 42.4373 198.928 41.072ZM225.191 40.784C225.191 41.296 225.159 41.8293 225.095 42.384H212.711C212.796 43.4933 213.148 44.3467 213.767 44.944C214.407 45.52 215.186 45.808 216.103 45.808C217.468 45.808 218.418 45.232 218.951 44.08H224.775C224.476 45.2533 223.932 46.3093 223.143 47.248C222.375 48.1867 221.404 48.9227 220.231 49.456C219.058 49.9893 217.746 50.256 216.295 50.256C214.546 50.256 212.988 49.8827 211.623 49.136C210.258 48.3893 209.191 47.3227 208.423 45.936C207.655 44.5493 207.271 42.928 207.271 41.072C207.271 39.216 207.644 37.5947 208.391 36.208C209.159 34.8213 210.226 33.7547 211.591 33.008C212.956 32.2613 214.524 31.888 216.295 31.888C218.023 31.888 219.559 32.2507 220.903 32.976C222.247 33.7013 223.292 34.736 224.039 36.08C224.807 37.424 225.191 38.992 225.191 40.784ZM219.591 39.344C219.591 38.4053 219.271 37.6587 218.631 37.104C217.991 36.5493 217.191 36.272 216.231 36.272C215.314 36.272 214.535 36.5387 213.895 37.072C213.276 37.6053 212.892 38.3627 212.743 39.344H219.591ZM233.55 35.12C234.19 34.1387 234.99 33.3707 235.95 32.816C236.91 32.24 237.976 31.952 239.15 31.952V37.744H237.646C236.28 37.744 235.256 38.0427 234.574 38.64C233.891 39.216 233.55 40.24 233.55 41.712V50H228.078V32.144H233.55V35.12Z" fill="#0A1849"/>
<defs>
<linearGradient id="paint0_linear_30_2" x1="6.565" y1="38.91" x2="55.57" y2="38.91" gradientUnits="userSpaceOnUse">
<stop offset="0.00834871" stop-color="#DC82EE"/>
<stop offset="1" stop-color="#349FE6"/>
</linearGradient>
<linearGradient id="paint1_linear_30_2" x1="8.45498" y1="35.535" x2="55.3" y2="35.67" gradientUnits="userSpaceOnUse">
<stop stop-color="#DC82EE"/>
<stop offset="0.493952" stop-color="#8391EA"/>
<stop offset="1" stop-color="#349FE6"/>
</linearGradient>
<linearGradient id="paint2_linear_30_2" x1="8.45498" y1="35.535" x2="55.3" y2="35.67" gradientUnits="userSpaceOnUse">
<stop stop-color="#DC82EE"/>
<stop offset="0.493952" stop-color="#8391EA"/>
<stop offset="1" stop-color="#349FE6"/>
</linearGradient>
<linearGradient id="paint3_linear_30_2" x1="8.45498" y1="35.535" x2="55.3" y2="35.67" gradientUnits="userSpaceOnUse">
<stop stop-color="#DC82EE"/>
<stop offset="0.493952" stop-color="#8391EA"/>
<stop offset="1" stop-color="#349FE6"/>
</linearGradient>
<linearGradient id="paint4_linear_30_2" x1="29.785" y1="35.535" x2="76.63" y2="35.67" gradientUnits="userSpaceOnUse">
<stop stop-color="#DC82EE"/>
<stop offset="0.493952" stop-color="#8391EA"/>
<stop offset="1" stop-color="#349FE6"/>
</linearGradient>
<linearGradient id="paint5_linear_30_2" x1="29.785" y1="35.535" x2="76.63" y2="35.67" gradientUnits="userSpaceOnUse">
<stop stop-color="#DC82EE"/>
<stop offset="0.493952" stop-color="#8391EA"/>
<stop offset="1" stop-color="#349FE6"/>
</linearGradient>
<linearGradient id="paint6_linear_30_2" x1="6.025" y1="35.13" x2="55.3" y2="35.265" gradientUnits="userSpaceOnUse">
<stop stop-color="#DC82EE"/>
<stop offset="0.502307" stop-color="#8391EA"/>
<stop offset="1" stop-color="#349FE6"/>
</linearGradient>
<linearGradient id="paint7_linear_30_2" x1="7.37501" y1="12.99" x2="56.38" y2="12.99" gradientUnits="userSpaceOnUse">
<stop stop-color="#DC82EE"/>
<stop offset="1" stop-color="#349FE6"/>
</linearGradient>
<linearGradient id="paint8_linear_30_2" x1="8.18502" y1="7.86" x2="56.11" y2="7.86" gradientUnits="userSpaceOnUse">
<stop stop-color="#DC82EE"/>
<stop offset="1" stop-color="#349FE6"/>
</linearGradient>
</defs>
</svg>
