<svg width="280" height="76" viewBox="0 0 280 76" fill="none" xmlns="http://www.w3.org/2000/svg">
<rect x="6.5" y="22.5099" width="49" height="32.8" rx="5.5" stroke="url(#paint0_linear_35_2)" stroke-width="5"/>
<rect x="17.23" y="33.51" width="5.4" height="10.8" rx="2.7" fill="url(#paint1_linear_35_2)"/>
<rect x="17.23" y="33.51" width="5.4" height="10.8" rx="2.7" fill="url(#paint2_linear_35_2)"/>
<rect x="17.23" y="33.51" width="5.4" height="10.8" rx="2.7" fill="url(#paint3_linear_35_2)"/>
<rect x="38.56" y="33.51" width="5.4" height="10.8" rx="2.7" fill="url(#paint4_linear_35_2)"/>
<rect x="38.56" y="33.51" width="5.4" height="10.8" rx="2.7" fill="url(#paint5_linear_35_2)"/>
<rect x="38.56" y="33.51" width="5.4" height="10.8" rx="2.7" fill="url(#paint6_linear_35_2)"/>
<rect x="27.76" y="5.97003" width="5.4" height="14.04" fill="url(#paint7_linear_35_2)"/>
<circle cx="30.325" cy="7.995" r="4.995" fill="url(#paint8_linear_35_2)"/>
<path d="M87.968 46.032H79.584L78.24 50H72.512L80.64 27.536H86.976L95.104 50H89.312L87.968 46.032ZM86.56 41.808L83.776 33.584L81.024 41.808H86.56ZM96.4898 41.04C96.4898 39.2053 96.8311 37.5947 97.5138 36.208C98.2178 34.8213 99.1671 33.7547 100.362 33.008C101.556 32.2613 102.89 31.888 104.362 31.888C105.535 31.888 106.602 32.1333 107.562 32.624C108.543 33.1147 109.311 33.776 109.866 34.608V26.32H115.338V50H109.866V47.44C109.354 48.2933 108.618 48.976 107.658 49.488C106.719 50 105.62 50.256 104.362 50.256C102.89 50.256 101.556 49.8827 100.362 49.136C99.1671 48.368 98.2178 47.2907 97.5138 45.904C96.8311 44.496 96.4898 42.8747 96.4898 41.04ZM109.866 41.072C109.866 39.7067 109.482 38.6293 108.714 37.84C107.967 37.0507 107.05 36.656 105.962 36.656C104.874 36.656 103.946 37.0507 103.178 37.84C102.431 38.608 102.058 39.6747 102.058 41.04C102.058 42.4053 102.431 43.4933 103.178 44.304C103.946 45.0933 104.874 45.488 105.962 45.488C107.05 45.488 107.967 45.0933 108.714 44.304C109.482 43.5147 109.866 42.4373 109.866 41.072ZM142.081 31.952C144.299 31.952 146.059 32.624 147.361 33.968C148.683 35.312 149.345 37.1787 149.345 39.568V50H143.905V40.304C143.905 39.152 143.595 38.2667 142.977 37.648C142.379 37.008 141.547 36.688 140.481 36.688C139.414 36.688 138.571 37.008 137.953 37.648C137.355 38.2667 137.057 39.152 137.057 40.304V50H131.617V40.304C131.617 39.152 131.307 38.2667 130.689 37.648C130.091 37.008 129.259 36.688 128.193 36.688C127.126 36.688 126.283 37.008 125.665 37.648C125.067 38.2667 124.769 39.152 124.769 40.304V50H119.297V32.144H124.769V34.384C125.323 33.6373 126.049 33.0507 126.945 32.624C127.841 32.176 128.854 31.952 129.985 31.952C131.329 31.952 132.523 32.24 133.569 32.816C134.635 33.392 135.467 34.2133 136.065 35.28C136.683 34.2987 137.526 33.4987 138.593 32.88C139.659 32.2613 140.822 31.952 142.081 31.952ZM155.924 30.288C154.964 30.288 154.174 30.0107 153.556 29.456C152.958 28.88 152.66 28.176 152.66 27.344C152.66 26.4907 152.958 25.7867 153.556 25.232C154.174 24.656 154.964 24.368 155.924 24.368C156.862 24.368 157.63 24.656 158.228 25.232C158.846 25.7867 159.156 26.4907 159.156 27.344C159.156 28.176 158.846 28.88 158.228 29.456C157.63 30.0107 156.862 30.288 155.924 30.288ZM158.644 32.144V50H153.172V32.144H158.644ZM173.489 31.952C175.58 31.952 177.244 32.6347 178.481 34C179.74 35.344 180.369 37.2 180.369 39.568V50H174.929V40.304C174.929 39.1093 174.62 38.1813 174.001 37.52C173.382 36.8587 172.55 36.528 171.505 36.528C170.46 36.528 169.628 36.8587 169.009 37.52C168.39 38.1813 168.081 39.1093 168.081 40.304V50H162.609V32.144H168.081V34.512C168.636 33.7227 169.382 33.104 170.321 32.656C171.26 32.1867 172.316 31.952 173.489 31.952Z" fill="#0A1849"/>
<defs>
<linearGradient id="paint0_linear_35_2" x1="6.565" y1="38.91" x2="55.57" y2="38.91" gradientUnits="userSpaceOnUse">
<stop offset="0.00834871" stop-color="#DC82EE"/>
<stop offset="1" stop-color="#349FE6"/>
</linearGradient>
<linearGradient id="paint1_linear_35_2" x1="8.45498" y1="35.535" x2="55.3" y2="35.67" gradientUnits="userSpaceOnUse">
<stop stop-color="#DC82EE"/>
<stop offset="0.493952" stop-color="#8391EA"/>
<stop offset="1" stop-color="#349FE6"/>
</linearGradient>
<linearGradient id="paint2_linear_35_2" x1="8.45498" y1="35.535" x2="55.3" y2="35.67" gradientUnits="userSpaceOnUse">
<stop stop-color="#DC82EE"/>
<stop offset="0.493952" stop-color="#8391EA"/>
<stop offset="1" stop-color="#349FE6"/>
</linearGradient>
<linearGradient id="paint3_linear_35_2" x1="8.45498" y1="35.535" x2="55.3" y2="35.67" gradientUnits="userSpaceOnUse">
<stop stop-color="#DC82EE"/>
<stop offset="0.493952" stop-color="#8391EA"/>
<stop offset="1" stop-color="#349FE6"/>
</linearGradient>
<linearGradient id="paint4_linear_35_2" x1="29.785" y1="35.535" x2="76.63" y2="35.67" gradientUnits="userSpaceOnUse">
<stop stop-color="#DC82EE"/>
<stop offset="0.493952" stop-color="#8391EA"/>
<stop offset="1" stop-color="#349FE6"/>
</linearGradient>
<linearGradient id="paint5_linear_35_2" x1="29.785" y1="35.535" x2="76.63" y2="35.67" gradientUnits="userSpaceOnUse">
<stop stop-color="#DC82EE"/>
<stop offset="0.493952" stop-color="#8391EA"/>
<stop offset="1" stop-color="#349FE6"/>
</linearGradient>
<linearGradient id="paint6_linear_35_2" x1="6.025" y1="35.13" x2="55.3" y2="35.265" gradientUnits="userSpaceOnUse">
<stop stop-color="#DC82EE"/>
<stop offset="0.502307" stop-color="#8391EA"/>
<stop offset="1" stop-color="#349FE6"/>
</linearGradient>
<linearGradient id="paint7_linear_35_2" x1="7.37501" y1="12.99" x2="56.38" y2="12.99" gradientUnits="userSpaceOnUse">
<stop stop-color="#DC82EE"/>
<stop offset="1" stop-color="#349FE6"/>
</linearGradient>
<linearGradient id="paint8_linear_35_2" x1="8.18502" y1="7.86" x2="56.11" y2="7.86" gradientUnits="userSpaceOnUse">
<stop stop-color="#DC82EE"/>
<stop offset="1" stop-color="#349FE6"/>
</linearGradient>
</defs>
</svg>
